<?xml version="1.0" encoding="utf-8"?>
<!-- Generator: Adobe Illustrator 17.1.0, SVG Export Plug-In . SVG Version: 6.00 Build 0)  -->
<!DOCTYPE svg PUBLIC "-//W3C//DTD SVG 1.1//EN" "http://www.w3.org/Graphics/SVG/1.1/DTD/svg11.dtd">
<svg version="1.1" id="Layer_1" xmlns="http://www.w3.org/2000/svg" xmlns:xlink="http://www.w3.org/1999/xlink" x="0px" y="0px"
	 viewBox="0 0 79.6 64.8" style="enable-background:new 0 0 79.6 64.8;" xml:space="preserve">
<style type="text/css">
	.st0{fill:#643F75;}
</style>
<g>
	<polygon class="st0" points="20.1,49.9 0.5,32.5 20.1,15.1 23.2,18.6 7.5,32.5 23.2,46.4 	"/>
	<path class="st0" d="M19.3,50.2l-19-16.8c-0.5-0.4-0.5-1.2,0-1.6l19-16.8c0.5-0.4,1.1-0.4,1.6,0.1l2.6,2.9c0.4,0.5,0.4,1.1-0.1,1.6
		L9.5,31.7c-0.5,0.4-0.5,1.2,0,1.6l13.9,12.3c0.5,0.4,0.5,1.1,0.1,1.6l-2.6,2.9C20.5,50.6,19.8,50.6,19.3,50.2z"/>
</g>
<path class="st0" d="M32.8,64.5l-3.5-0.9c-0.5-0.1-0.9-0.7-0.7-1.2L44.9,1c0.1-0.5,0.7-0.9,1.2-0.7l3.5,0.9c0.5,0.1,0.9,0.7,0.7,1.2
	L34,63.8C33.9,64.4,33.3,64.7,32.8,64.5z"/>
<g>
	<polygon class="st0" points="59.5,15.1 79.1,32.5 59.5,49.9 56.4,46.4 72.1,32.5 56.4,18.6 	"/>
	<path class="st0" d="M60.3,14.9l19,16.8c0.5,0.4,0.5,1.2,0,1.6l-19,16.8c-0.5,0.4-1.1,0.4-1.6-0.1l-2.6-2.9
		c-0.4-0.5-0.4-1.1,0.1-1.6l13.9-12.3c0.5-0.4,0.5-1.2,0-1.6L56.3,19.4c-0.5-0.4-0.5-1.1-0.1-1.6l2.6-2.9
		C59.1,14.5,59.8,14.5,60.3,14.9z"/>
</g>
</svg>
