<?xml version="1.0" encoding="utf-8"?>
<!-- Generator: Adobe Illustrator 17.1.0, SVG Export Plug-In . SVG Version: 6.00 Build 0)  -->
<!DOCTYPE svg PUBLIC "-//W3C//DTD SVG 1.1//EN" "http://www.w3.org/Graphics/SVG/1.1/DTD/svg11.dtd">
<svg version="1.1" id="Layer_1" xmlns="http://www.w3.org/2000/svg" xmlns:xlink="http://www.w3.org/1999/xlink" x="0px" y="0px"
	 viewBox="0 0 151.1 64.4" style="enable-background:new 0 0 151.1 64.4;" xml:space="preserve">
<style type="text/css">
	.st0{fill:#633E74;}
	.st1{fill:#653F75;}
</style>
<path class="st0" d="M0,61c0,0,17.6,3.4,26.4-9.7c0.7-1.1,1.1-2.3,1.1-3.6c0-3.6-1.1-10.5-10-11.2c-1.2-0.1-2.5,0.2-3.5,0.9
	C5.9,42.8,11.1,56.7,0,61z"/>
<path class="st0" d="M32.1,40c-1.1-4.1-3.9-7.2-9.1-8.3L45.5,6.9C47,5.3,49,4.8,50,5.7l5.3,4.8c1.1,1,0.8,3.1-0.6,4.6L32.1,40z"/>
<g>
	<polygon class="st1" points="91,49.7 71.4,32.3 91,14.9 94.1,18.4 78.5,32.3 94.1,46.2 	"/>
	<path class="st1" d="M90.3,50l-19-16.8c-0.5-0.4-0.5-1.2,0-1.6l19-16.8c0.5-0.4,1.1-0.4,1.6,0.1l2.6,2.9c0.4,0.5,0.4,1.1-0.1,1.6
		L80.4,31.5c-0.5,0.4-0.5,1.2,0,1.6l13.9,12.3c0.5,0.4,0.5,1.1,0.1,1.6l-2.6,2.9C91.4,50.3,90.7,50.4,90.3,50z"/>
</g>
<path class="st1" d="M103.7,64.3l-3.5-0.9c-0.5-0.1-0.9-0.7-0.7-1.2l16.3-61.4c0.1-0.5,0.7-0.9,1.2-0.7l3.5,0.9
	c0.5,0.1,0.9,0.7,0.7,1.2l-16.3,61.4C104.8,64.2,104.2,64.5,103.7,64.3z"/>
<g>
	<polygon class="st1" points="130.5,14.9 150.1,32.3 130.5,49.7 127.4,46.2 143,32.3 127.4,18.4 	"/>
	<path class="st1" d="M131.2,14.7l19,16.8c0.5,0.4,0.5,1.2,0,1.6l-19,16.8c-0.5,0.4-1.1,0.4-1.6-0.1l-2.6-2.9
		c-0.4-0.5-0.4-1.1,0.1-1.6L141,33.1c0.5-0.4,0.5-1.2,0-1.6l-13.9-12.3c-0.5-0.4-0.5-1.1-0.1-1.6l2.6-2.9
		C130.1,14.3,130.8,14.3,131.2,14.7z"/>
</g>
</svg>
