<?xml version="1.0" encoding="utf-8"?>
<!-- Generator: Adobe Illustrator 17.1.0, SVG Export Plug-In . SVG Version: 6.00 Build 0)  -->
<!DOCTYPE svg PUBLIC "-//W3C//DTD SVG 1.1//EN" "http://www.w3.org/Graphics/SVG/1.1/DTD/svg11.dtd">
<svg version="1.1" id="Layer_1" xmlns="http://www.w3.org/2000/svg" xmlns:xlink="http://www.w3.org/1999/xlink" x="0px" y="0px"
	 viewBox="0 0 50.9 51.1" style="enable-background:new 0 0 50.9 51.1;" xml:space="preserve">
<style type="text/css">
	.st0{fill:#633E74;}
</style>
<path class="st0" d="M0,50.7c0,0,16,3.1,24.1-8.8c0.7-1,1-2.1,1-3.3c0-3.2-1-9.6-9.1-10.2c-1.1-0.1-2.3,0.2-3.2,0.8
	C5.4,34.1,10.1,46.8,0,50.7z"/>
<path class="st0" d="M29.2,31.6c-1-3.7-3.5-6.5-8.3-7.5L41.5,1.4c1.3-1.4,3.1-1.9,4-1l4.8,4.4c1,0.9,0.8,2.8-0.5,4.2L29.2,31.6z"/>
</svg>
